<svg version="1.1" id="Layer_1" xmlns="http://www.w3.org/2000/svg" xmlns:xlink="http://www.w3.org/1999/xlink" x="0px" y="0px"
	 width="100%" viewBox="0 0 162 148" enable-background="new 0 0 162 148" xml:space="preserve">
<path fill="#000000" opacity="1.000000" stroke="none" 
	d="
M122.000000,149.000000 
	C81.365746,149.000000 41.231495,149.000000 1.048621,149.000000 
	C1.048621,99.738930 1.048621,50.477806 1.048621,1.108338 
	C54.884003,1.108338 108.768295,1.108338 162.826294,1.108338 
	C162.826294,50.332817 162.826294,99.666374 162.826294,149.000000 
	C149.478165,149.000000 135.989075,149.000000 122.000000,149.000000 
M100.815727,46.251614 
	C100.899300,47.143768 100.982872,48.035923 101.066437,48.928082 
	C101.441719,48.921886 101.817009,48.915691 102.192291,48.909500 
	C102.192291,45.309040 102.192291,41.708576 102.192291,38.108116 
	C101.911308,38.077396 101.630325,38.046680 101.349350,38.015961 
	C101.185402,40.526047 101.021461,43.036137 100.815727,46.251614 
M106.444183,38.819443 
	C106.631950,36.618004 106.819717,34.416565 107.007484,32.215130 
	C106.744843,32.213490 106.482201,32.211853 106.219559,32.210217 
	C106.219559,34.332321 106.219559,36.454426 106.444183,38.819443 
z"/>
<path fill="#0C0C0C" opacity="1.000000" stroke="none" 
	d="
M100.836624,45.898918 
	C101.021461,43.036137 101.185402,40.526047 101.349350,38.015961 
	C101.630325,38.046680 101.911308,38.077396 102.192291,38.108116 
	C102.192291,41.708576 102.192291,45.309040 102.192291,48.909500 
	C101.817009,48.915691 101.441719,48.921886 101.066437,48.928082 
	C100.982872,48.035923 100.899300,47.143768 100.836624,45.898918 
z"/>
<path fill="#0C0C0C" opacity="1.000000" stroke="none" 
	d="
M106.331871,38.697987 
	C106.219559,36.454426 106.219559,34.332321 106.219559,32.210217 
	C106.482201,32.211853 106.744843,32.213490 107.007484,32.215130 
	C106.819717,34.416565 106.631950,36.618004 106.331871,38.697987 
z"/>
</svg>